<svg width="48" height="48" viewBox="0 0 48 48" fill="none" xmlns="http://www.w3.org/2000/svg">
<path d="M24 44C35.0457 44 44 35.0457 44 24C44 12.9543 35.0457 4 24 4C12.9543 4 4 12.9543 4 24C4 35.0457 12.9543 44 24 44Z" stroke="black" stroke-width="4" stroke-linecap="round" stroke-linejoin="round"/>
<path d="M18.1875 18.0011C18.6577 16.6645 19.5858 15.5374 20.8074 14.8194C22.029 14.1015 23.4653 13.839 24.8619 14.0786C26.2584 14.3181 27.5251 15.0442 28.4377 16.1282C29.3502 17.2122 29.8496 18.5842 29.8475 20.0011C29.8475 24.0011 23.8475 26.0011 23.8475 26.0011" stroke="black" stroke-width="4" stroke-linecap="round" stroke-linejoin="round"/>
<path d="M24 34H24.02" stroke="black" stroke-width="4" stroke-linecap="round" stroke-linejoin="round"/>
</svg>
