<svg width="48" height="49" viewBox="0 0 48 49" fill="none" xmlns="http://www.w3.org/2000/svg">
<path d="M34 42.1211V38.1211C34 35.9994 33.1571 33.9645 31.6569 32.4642C30.1566 30.964 28.1217 30.1211 26 30.1211H10C7.87827 30.1211 5.84344 30.964 4.34315 32.4642C2.84285 33.9645 2 35.9994 2 38.1211V42.1211" stroke="black" stroke-width="4" stroke-linecap="round" stroke-linejoin="round"/>
<path d="M18 22.1211C22.4183 22.1211 26 18.5394 26 14.1211C26 9.70282 22.4183 6.12109 18 6.12109C13.5817 6.12109 10 9.70282 10 14.1211C10 18.5394 13.5817 22.1211 18 22.1211Z" stroke="black" stroke-width="4" stroke-linecap="round" stroke-linejoin="round"/>
<path d="M46 42.1189V38.1189C45.9987 36.3464 45.4087 34.6245 44.3227 33.2235C43.2368 31.8226 41.7163 30.822 40 30.3789" stroke="black" stroke-width="4" stroke-linecap="round" stroke-linejoin="round"/>
<path d="M32 6.37891C33.7208 6.81951 35.2461 7.82031 36.3353 9.22353C37.4245 10.6267 38.0157 12.3526 38.0157 14.1289C38.0157 15.9052 37.4245 17.6311 36.3353 19.0343C35.2461 20.4375 33.7208 21.4383 32 21.8789" stroke="black" stroke-width="4" stroke-linecap="round" stroke-linejoin="round"/>
</svg>
