<svg width="48" height="48" viewBox="0 0 48 48" fill="none" xmlns="http://www.w3.org/2000/svg">
<g clip-path="url(#clip0_3559_48781)">
<path d="M0.845109 27.7633C0.845109 24.2528 2.05392 20.527 4.47155 16.5859C6.9223 12.6117 11.327 8.98531 17.6857 5.7066L18.878 7.94208C15.6986 10.1941 13.3472 12.0819 11.8238 13.6053C9.14122 16.3541 7.79993 18.987 7.79993 21.504C7.79993 22.3651 8.04832 22.9281 8.54509 23.193C9.04187 23.4911 9.4724 23.6401 9.8367 23.6401C11.0952 23.4745 11.9231 23.3917 12.3206 23.3917C14.4401 23.3917 16.1788 24.17 17.5367 25.7266C18.8945 27.25 19.5735 29.1046 19.5735 31.2904C19.5735 33.7412 18.8283 35.7945 17.338 37.4504C15.8477 39.0732 13.7943 39.8846 11.178 39.8846C8.098 39.8846 5.59757 38.7917 3.67672 36.6059C1.78898 34.387 0.845109 31.4395 0.845109 27.7633ZM28.267 27.7633C28.267 24.0541 29.5586 20.2289 32.1418 16.2879C34.725 12.3468 39.047 8.81971 45.1076 5.7066L46.2998 7.94208C43.3192 10.0285 41.0341 11.8666 39.4444 13.4563C36.6293 16.2713 35.2218 18.8876 35.2218 21.3053C35.2218 22.0008 35.404 22.5638 35.7683 22.9943C36.1326 23.4248 36.6293 23.6401 37.2586 23.6401C38.5171 23.4745 39.345 23.3917 39.7424 23.3917C41.8289 23.3917 43.551 24.1534 44.9089 25.6769C46.2998 27.2003 46.9953 29.0715 46.9953 31.2904C46.9953 33.8736 46.2336 35.9601 44.7102 37.5498C43.1867 39.1063 41.1169 39.8846 38.5005 39.8846C35.5199 39.8846 33.0691 38.7917 31.1483 36.6059C29.2274 34.387 28.267 31.4395 28.267 27.7633Z" fill="black"/>
</g>
<defs>
<clipPath id="clip0_3559_48781">
<rect width="48" height="48" fill="white"/>
</clipPath>
</defs>
</svg>
